Coordinates
version=1
nRows=9
nColumns=40
inDegrees=yes

Units are S.I. units (second, meters, Newtons, ...)
If the header above contains a line with 'inDegrees', this indicates whether rotational values are in degrees (yes) or radians (no).

endheader
time	pelvis_tilt	pelvis_list	pelvis_rotation	pelvis_tx	pelvis_ty	pelvis_tz	hip_flexion_r	hip_adduction_r	hip_rotation_r	knee_angle_r	knee_angle_r_beta	ankle_angle_r	subtalar_angle_r	mtp_angle_r	hip_flexion_l	hip_adduction_l	hip_rotation_l	knee_angle_l	knee_angle_l_beta	ankle_angle_l	subtalar_angle_l	mtp_angle_l	lumbar_extension	lumbar_bending	lumbar_rotation	arm_flex_r	arm_add_r	arm_rot_r	elbow_flex_r	pro_sup_r	wrist_flex_r	wrist_dev_r	arm_flex_l	arm_add_l	arm_rot_l	elbow_flex_l	pro_sup_l	wrist_flex_l	wrist_dev_l
      5.70000000000000017764	     49.32852478550565678006	      0.92417098936623698346	   -177.34044111380816843848	      0.39678476977077420385	      0.78505087716661370312	     -0.61353817891666706519	     81.97817055965508359350	     -8.91357075928322650782	     -5.02913138117960922813	     28.09535315677445410643	      0.49035641709629684826	     -4.06052468473803163107	      0.00000000000000000000	      0.00000000000000000000	     80.28686222452255094595	     -4.25378759025190067433	     -4.03894951783101863185	     24.39779682544319427961	      0.42582188483660399214	     -7.43490490556891003848	      0.00000000000000000000	      0.00000000000000000000	    -16.03523342140416829693	      1.19885458230547414793	      2.43820563716779981078	     52.31978225093722301153	     -9.99876105508652734954	     56.37077318217409072076	      0.76634757219610094570	     84.36418506423228791391	      0.00000000000000000000	      0.00000000000000000000	     42.81811376340153429965	     -2.69357113276196802332	     69.36895965162072741350	      0.52129983472725605065	      2.32226266575601458797	      0.00000000000000000000	      0.00000000000000000000
      5.70500000000000007105	     49.19513946492433831281	      1.02631053447134945600	   -177.23930252939453566796	      0.39650668814158290809	      0.78581565421185584075	     -0.61358014789109072140	     81.60276410421226955805	     -8.98363772604657384591	     -5.30982927633503010156	     27.78233939249405182181	      0.48489329630554239836	     -4.07799123478343261695	      0.00000000000000000000	      0.00000000000000000000	     79.94323014993810261331	     -4.15730667634678674460	     -3.86729568677180424174	     23.99832308292448956877	      0.41884975275438851572	     -7.51019865651002405116	      0.00000000000000000000	      0.00000000000000000000	    -15.82860865947150585953	      1.21567404271860857179	      2.49995576343449288359	     51.99893177979421210466	    -10.10589237281202734664	     56.43640032916829341048	      0.77451718748795006508	     84.63470452882594941002	      0.00000000000000000000	      0.00000000000000000000	     42.62398279518735932925	     -2.67650335723684085210	     70.01827795138333954128	      0.51653406416796132650	      2.32150270987897311414	      0.00000000000000000000	      0.00000000000000000000
      5.70999999999999996447	     48.91120744314389412466	      1.23076576756995104134	   -177.18974899117361587741	      0.39587799993348060656	      0.78673498327823143672	     -0.61387958908966733240	     81.00203308204919494528	     -8.89537924714815098071	     -5.53702559973072983013	     27.36860185176372084470	      0.47767221398069398264	     -4.00859088787535178255	      0.00000000000000000000	      0.00000000000000000000	     79.50078358835338576682	     -4.17500368995365089830	     -3.68161413524612068926	     23.68650871460623008602	      0.41340756537220857414	     -7.55184040090990915672	      0.00000000000000000000	      0.00000000000000000000	    -15.79634029240735770827	      1.37814287085586095749	      2.56690204258395926473	     51.73950182675859821302	    -10.13287905807805167058	     56.81178272105740489906	      0.77499070566903283108	     84.42581574630656859881	      0.00000000000000000000	      0.00000000000000000000	     42.35533700158294578841	     -2.75763662678868604061	     70.86219096843248621553	      0.51669086240476502780	      2.25879291352213229516	      0.00000000000000000000	      0.00000000000000000000
      5.71499999999999985789	     48.83114725255985177910	      1.10443402754329778048	   -177.20737877789099457004	      0.39562526641708067876	      0.78731034232739904866	     -0.61408884358089732558	     80.78528108715943290008	     -8.87895684307859944795	     -5.50085553614076516737	     27.12881953491340070173	      0.47348722306359564138	     -4.06828692868617114442	      0.00000000000000000000	      0.00000000000000000000	     79.21351226284390634191	     -4.15392172984757923615	     -3.85044823000445379790	     23.39483991280445351890	      0.40831698445542086162	     -7.62886528072619540808	      0.00000000000000000000	      0.00000000000000000000	    -15.53327718614978003586	      1.24064369220517711767	      2.54573785749034842141	     51.42763014573559843257	    -10.09911359912922890203	     57.67081044330036121437	      0.76318128562945630744	     84.00877291083421027906	      0.00000000000000000000	      0.00000000000000000000	     42.07457215701438002498	     -2.88257296404675411594	     71.22151335839660646343	      0.52312687785878186908	      2.28887000365283643788	      0.00000000000000000000	      0.00000000000000000000
      5.71999999999999975131	     48.59187152661447584023	      1.39500891596864562416	   -177.09708994209347565629	      0.39511806173853347701	      0.78815699443199571661	     -0.61430612868151146522	     80.24589612966894947022	     -8.85360772696087394706	     -5.87170485022346255732	     26.78834858988956924009	      0.46754488406555316793	     -4.08400150887723345505	      0.00000000000000000000	      0.00000000000000000000	     78.88122522198541730631	     -4.14988354883438592680	     -3.51523093762299421172	     23.20672515705702920741	      0.40503376259604334519	     -7.79269403576282204682	      0.00000000000000000000	      0.00000000000000000000	    -15.42574129127785731441	      1.45846474780169432783	      2.64676161482404559422	     51.15142011214874173675	    -10.18433678650861295978	     57.39166169120882443622	      0.76778412236147941528	     84.25296597532033615607	      0.00000000000000000000	      0.00000000000000000000	     41.87902472281805188459	     -2.85853345787086521312	     71.85197261430417370320	      0.51584356320428392806	      2.30337964560990782203	      0.00000000000000000000	      0.00000000000000000000
      5.72499999999999964473	     48.46010773152593742452	      1.41622413175189088008	   -177.03134316317712659838	      0.39480166378765851887	      0.78875448647269397195	     -0.61447809629247918117	     79.96903213789431674741	     -8.86988202133254333148	     -5.96042064301924767733	     26.59613200139224176155	      0.46419007171932374911	     -4.08461818150391664517	      0.00000000000000000000	      0.00000000000000000000	     78.61626317274929931500	     -4.10394503861638249020	     -3.50782684169457592560	     22.99045649614691555485	      0.40125916239428272014	     -7.76613634351500969899	      0.00000000000000000000	      0.00000000000000000000	    -15.20367461096269678933	      1.50373771276336465341	      2.58747034768381301006	     50.86366876833542960412	    -10.16686481991482793319	     58.22790937420920442946	      0.75705852602736911638	     83.98271772918864996882	      0.00000000000000000000	      0.00000000000000000000	     41.61408938901313803171	     -2.97072458024713226266	     72.13183872920014039209	      0.52029287709812643836	      2.29833645749302384331	      0.00000000000000000000	      0.00000000000000000000
      5.73000000000000042633	     48.26244378518354238849	      1.46743032107982651624	   -177.07084982501899617091	      0.39431312690423897527	      0.78943570993711564832	     -0.61486103072766040700	     79.60732944136064759277	     -8.75715595058152906915	     -5.99399230502317870162	     26.39300273752262881999	      0.46064479725764662099	     -4.06921765710314531361	      0.00000000000000000000	      0.00000000000000000000	     78.29449429278966476886	     -4.15742736184997330184	     -3.42752048108189377729	     22.77903404343426174705	      0.39756914448180491473	     -7.84304602241353698844	      0.00000000000000000000	      0.00000000000000000000	    -15.02809852081224661902	      1.42769050804710384561	      2.76892382646226975496	     50.51433222562713609705	    -10.21299061617277104119	     58.00045626243195329153	      0.75936125838753087969	     83.79298393130844146981	      0.00000000000000000000	      0.00000000000000000000	     41.35395298186644907901	     -3.02449208113956613531	     73.29821368472020992613	      0.51645495009891373428	      2.26981759719499320838	      0.00000000000000000000	      0.00000000000000000000
      5.73500000000000031974	     48.09393498974511516053	      1.57313357467570291703	   -177.02289224343343221335	      0.39396497724149465158	      0.79008537830833480697	     -0.61513011422911134662	     79.29425504804811453141	     -8.71100523148314564992	     -6.07727186193132773440	     26.22092632322484817564	      0.45764149726312453037	     -4.07684467570999142794	      0.00000000000000000000	      0.00000000000000000000	     78.06196589613394110074	     -4.15734153635415815131	     -3.27100465924053107614	     22.66082835806973605486	      0.39550606607761745748	     -7.98882468668710910009	      0.00000000000000000000	      0.00000000000000000000	    -14.82670474673984273295	      1.49660106308194840175	      2.81774527035352884141	     50.20988884306796506962	    -10.26562116617036224397	     58.39557622643992829126	      0.75900190593065353095	     83.79614080872249815002	      0.00000000000000000000	      0.00000000000000000000	     41.10924568360042030690	     -3.10846827694994365388	     73.97444101525159965149	      0.51495840962593497636	      2.29070665986686661242	      0.00000000000000000000	      0.00000000000000000000
      5.74000000000000021316	     47.97170214679943711644	      1.63478772765128299582	   -176.92932558982224122701	      0.39370354992479345002	      0.79059901769545570804	     -0.61532037658078431175	     79.11057715762453312891	     -8.74317486475522898104	     -6.11199986351823998376	     26.18970608987075010532	      0.45709660139785451838	     -4.06321905563918672755	      0.00000000000000000000	      0.00000000000000000000	     77.89846598481544504011	     -4.11569226249498054671	     -3.19249003170569034538	     22.61574438188350910650	      0.39471920225327705722	     -8.00085234377124443483	      0.00000000000000000000	      0.00000000000000000000	    -14.58333178926766748873	      1.59035914477204620709	      2.72437966536148890029	     49.94230046949767398701	    -10.21595517258311858200	     59.04940335185202116008	      0.74680767757095956050	     83.68718425071133992788	      0.00000000000000000000	      0.00000000000000000000	     40.84832359482726360511	     -3.21870535759020270916	     74.18570343239156272830	      0.51824923997613969728	      2.29165713577438401316	      0.00000000000000000000	      0.00000000000000000000
